<svg width="736" height="736" viewBox="0 0 736 736" fill="none" xmlns="http://www.w3.org/2000/svg">
<circle cx="368" cy="368" r="358" fill="#FDF3DD" stroke="#06242E" stroke-width="20"/>
<path d="M715.619 382.941C715.83 380.758 714.244 378.812 712.063 378.578L688 376H664L645 379L633 382L615.5 387L593.5 397L567.5 413L552 425L542 434L530 444L504 470L485 485L459.5 502.5L424 520L406.5 525L381 530L348.5 531L337 528L327 526L317 524L307 521L286 513L263 500L236 480L217 461L196 439L181 418L171 399L164.5 374.5L163 356.5V343L167 310L171.5 289L176 272.5L180 259.5L182.5 250L186 238.5L192.5 220.5L203 200.5L213 185.5L223.5 172L230.5 163L248 145L272 123.5L290.5 103.5L325.5 61L292.5 88.5L268.5 106.5C261.667 112 248 123.1 248 123.5C248 123.9 230.667 138.667 222 146L200 168.5L186 186.5L178 197.5L170.5 209L162 223L156 235.5L152.5 241.5L148.5 250L145 257L141.5 268.5L137 283L133.5 295.5L130.5 314.5L128 334.5L126.5 345L125.5 364.5L126.5 385L130.5 421.5L139 447.5L153.5 484.5L179.5 523L210.5 556L228 569L243 579L263 590L286 599L305.5 606L325 610L348.5 612H382.5L408.5 607.5L431 601L462.5 588L484 575.5L502.5 562.5L525 544.5L545 526.5L559 511.5L576 497.5L591 486.5L606.5 477L622 470L636.5 464.5L647.5 461.5L659.5 458.5L670.5 456.5L680 454.5L686.5 454L705 453.5L710 431L713 414L713.5 404L714.5 394.5L715.619 382.941Z" fill="url(#paint0_linear_7_52)" stroke="url(#paint1_linear_7_52)"/>
<path d="M664 551L670 541L676.5 528.5L682 517.5L687.5 505.5L696 483.5L701 469L705 454L680.5 455L659 459L639.5 464L608.5 476.5L586 490.5L564 508L537.5 533.5L504.5 561.5C496 567.5 481.8 578 481 578C480 578 455 592 454.5 592C454.1 592 440.833 597.667 433 600.5L414.5 606.5L397 609.5L380 611.5L352 612C351.6 612 336.333 611.167 329.5 610.5L308 606L284.5 598.5L267 591L248.5 582L223 565.5L201 545L184.5 528L171 509.5L157.5 490L149.5 473.5L142 454L136.5 439L130 410.5L127.5 384.5L126.5 355.5L129.5 325L134 297.5L139 278L146 257L158.5 233L167.5 214.5L184.5 189.5L213.5 154.5L237 133.5L265 109.5L291 88.5L320 62.5L342.5 41L298.5 62.5L241 96.5C226.833 106 206.4 124.5 206 124.5C205.5 124.5 174.5 151 174.5 151.5C174.5 151.9 161.833 165.333 155.5 172L138 195.5L126.5 216L113.5 243L103.5 271L95.5 303.5L91 327.5L89 353L89.5 384.5L93 412L98 437.5L104 462L117 493.5L127.5 514.5L143 539L164 567L184.5 587.5L206.5 605.5L230 623L265.5 643L292.5 656L317.5 665L346.5 672.5L373.5 677L409 678.5L431 677L442.5 675L466.5 670.5L489.5 663L516.5 651.5L540.5 638L560 624.5C566 619.5 578.2 609.5 579 609.5C579.8 609.5 593.333 599.167 600 594L619.5 579.5L637 568L655 557L664 551Z" fill="url(#paint2_linear_7_52)"/>
<path d="M380 611.5L397 609.5L414.5 606.5L433 600.5C440.833 597.667 454.1 592 454.5 592C455 592 480 578 481 578C481.8 578 496 567.5 504.5 561.5L537.5 533.5L564 508L586 490.5L608.5 476.5L639.5 464L659 459L680.5 455L705 454L701 469L696 483.5L687.5 505.5L682 517.5L676.5 528.5L670 541L664 551L655 557L637 568L619.5 579.5L600 594C593.333 599.167 579.8 609.5 579 609.5C578.2 609.5 566 619.5 560 624.5L540.5 638L516.5 651.5L489.5 663L466.5 670.5L442.5 675L431 677L409 678.5L373.5 677L346.5 672.5L317.5 665L292.5 656L265.5 643L230 623L206.5 605.5L184.5 587.5L164 567L143 539L127.5 514.5L117 493.5L104 462L98 437.5L93 412L89.5 384.5L89 353L91 327.5L95.5 303.5L103.5 271L113.5 243L126.5 216L138 195.5L155.5 172C161.833 165.333 174.5 151.9 174.5 151.5C174.5 151 205.5 124.5 206 124.5C206.4 124.5 226.833 106 241 96.5L298.5 62.5L342.5 41L320 62.5L291 88.5L265 109.5L237 133.5L213.5 154.5L184.5 189.5L167.5 214.5L158.5 233L146 257L139 278L134 297.5L129.5 325L126.5 355.5L127.5 384.5L130 410.5L136.5 439L142 454L149.5 473.5L157.5 490L171 509.5L184.5 528L201 545L223 565.5L248.5 582L267 591L284.5 598.5L308 606L329.5 610.5C336.333 611.167 351.6 612 352 612M380 611.5C370.333 611.5 352.4 612 352 612M380 611.5L352 612" stroke="#2F94A8"/>
<path d="M689.5 500.5L683.5 515L667.5 516.5L651 521.5L645.5 524L634.5 530L616.5 540.5L597.5 555.5L577.5 573.5L563 587L539 605L504.5 627L484.5 637L462.5 645L443.5 649L416.5 652H395.5L373.5 649L337.5 640.5L373.5 642.5L395.5 643.5L416.5 642.5L443.5 636.5L462.5 631L484.5 621.5L504.5 611L538.5 587L563 567L576.5 555.5L594.5 540.5L617.5 524L634.5 513.5L651 507L667.5 504L681.5 501.5L689.5 500.5Z" fill="url(#paint3_linear_7_52)" stroke="url(#paint4_linear_7_52)"/>
<path d="M325.5 49L343.5 41L363.5 22.5L344.5 31.5L325.5 41.5L307 48C297.354 51.6722 288.785 55.5 288 55.5C287.215 55.5 271.137 64.9933 261 69.5L239.443 82.5L204 105.5L175.5 129L150.5 154L137 171.5L121 193.5L110.5 212.5L98 239.5L89.5 262.5L80.5 291.5L76.5 315L73.5 338L73 386.5L77 416.5L80.5 441L86 458L96 485.5L105 505L115.5 525L134.5 556.5L157 581.5L184.5 607.5L216 629.5L231 640L248.5 649.5L300.262 671.491L347 677L375.795 677.5L332 669.5L290.5 656L255.5 638L220 616.5L193.5 595.5L162.5 566L144.5 541.5L123.5 508L109.5 476L102 456L93 413.5L89 385V351.5L91 324L98 290.5L104.5 267L116 237L130 209.5L145 185.5C154.646 174.484 177.285 149 176.5 149C175.715 149 194.19 133.846 204 125.5L228 105.5L254 89L280.5 72L306 59L325.5 49Z" fill="url(#paint5_linear_7_52)" stroke="#042C33"/>
<path d="M667.5 517L683.5 515.5L664 550.5L648 560.5L628.5 572.5L597.5 596L538 638.5L507.5 654.5L465.5 670L415.5 678L376.5 677L345 671L362 659.5L377.5 650L393.5 652.5H417L443 650L470 643L496 632L519.5 618C528.667 611.667 547.1 599 547.5 599C547.9 599 569.333 581 580 572L613.5 543.5L646.5 524L667.5 517Z" fill="url(#paint6_linear_7_52)" fill-opacity="0.25"/>
<path d="M359 20L353 20.5L338 21L318 23.5L296 27.5L269 34L246 42L226 50L202 62L180 75L160 89L137.5 107L119 125L98 148L83 168L72 185L60 205.5L52 222L48 231L43.5 242L35 266L29.5 287L26 304L22.5 325L20.5 349L20 370L20.5 390L22 407L24 421L26.5 435L30 451L34 466L39 481L44.5 497L51 512L58 525.5L64.5 538.5L72.5 552L79.5 562.5L86 572L98 587L117 609L139 630L160.5 647L182 662L204.5 675.5L229.5 687.5L261 699L294 708L319 712.5L342 715L366.5 716L391 715L414 713L439 709L457.5 704.5L484 696L504 688L520 681L541 670L561 657.5L578.5 645L592 634.5L610 618L627 600L640 585L652.5 568L663.5 551.5L640.5 566L624.5 576L607 588L593 598.5L573.5 613L560.5 623.5L537.5 639.5L519 650L489.5 662.5L465.5 670.5L439.5 675.5L416 678H385.5H357.5L337 676.5L321 674L308.5 672L296 670L278.5 663L241.5 646.5L224.5 636L210 626L186.5 610L176.5 601L165 589.5L147.5 571.5L132 553.5L118.5 531.5L106 507.5L95 485.5L85.5 459.5L79.5 441L76 415L73.5 395L72 386.5L72.5 367V338L76.5 312L79 297.5L86 272.5L95 246L103.5 226.5L114.5 204.5L122.5 190.5L134.5 174L146.5 158L158 145.5L170 133.5L184 121L199.5 108L217 96.5L235.5 84.5L252.5 75L269 65L289.5 55L312 45.5L332.5 39L345.5 32.5C349 31 361.5 24 363.5 22.5L366 20H359Z" fill="url(#paint7_angular_7_52)" stroke="url(#paint8_angular_7_52)"/>
<path d="M590.466 290.852L619.966 313.852" stroke="#022B3D" stroke-width="18" stroke-linecap="round"/>
<path d="M591.966 338.5L620.466 314" stroke="#022B3D" stroke-width="18" stroke-linecap="round"/>
<path d="M636.466 289L658.966 312.852" stroke="#022B3D" stroke-width="18" stroke-linecap="round"/>
<path d="M634.465 339L659.466 313" stroke="#022B3D" stroke-width="18" stroke-linecap="round"/>
<g filter="url(#filter0_d_7_52)">
<ellipse cx="372.466" cy="311.5" rx="171" ry="170.5" fill="#FCF7DE"/>
<path d="M534.466 311.5C534.466 400.669 461.961 473 372.466 473C282.971 473 210.466 400.669 210.466 311.5C210.466 222.331 282.971 150 372.466 150C461.961 150 534.466 222.331 534.466 311.5Z" stroke="#082533" stroke-width="18"/>
</g>
<g filter="url(#filter1_d_7_52)">
<ellipse cx="372.466" cy="312" rx="119" ry="120" fill="#FDF9E6"/>
<path d="M482.466 312C482.466 373.375 433.146 423 372.466 423C311.785 423 262.466 373.375 262.466 312C262.466 250.625 311.785 201 372.466 201C433.146 201 482.466 250.625 482.466 312Z" stroke="#042631" stroke-width="18"/>
</g>
<path d="M182 313.534L616.466 315.404" stroke="#022B3D" stroke-width="15" stroke-linecap="round"/>
<g filter="url(#filter2_d_7_52)">
<circle cx="370.966" cy="312.5" r="71.5" fill="#38B3B2"/>
<circle cx="370.966" cy="312.5" r="65" stroke="#08323B" stroke-width="13"/>
</g>
<path d="M399.966 311.5C399.966 326.876 387.294 339.5 371.466 339.5C355.637 339.5 342.966 326.876 342.966 311.5C342.966 296.124 355.637 283.5 371.466 283.5C387.294 283.5 399.966 296.124 399.966 311.5Z" fill="url(#paint9_radial_7_52)" stroke="#062E37" stroke-width="13"/>
<path d="M437 77.5174C546.844 105.553 580.671 136.354 629.195 231.273" stroke="#54B7A5" stroke-width="20" stroke-linecap="round"/>
<defs>
<filter id="filter0_d_7_52" x="197.466" y="141" width="350" height="365" filterUnits="userSpaceOnUse" color-interpolation-filters="sRGB">
<feFlood flood-opacity="0" result="BackgroundImageFix"/>
<feColorMatrix in="SourceAlpha" type="matrix" values="0 0 0 0 0 0 0 0 0 0 0 0 0 0 0 0 0 0 127 0" result="hardAlpha"/>
<feOffset dy="20"/>
<feGaussianBlur stdDeviation="2"/>
<feComposite in2="hardAlpha" operator="out"/>
<feColorMatrix type="matrix" values="0 0 0 0 0.768627 0 0 0 0 0.823529 0 0 0 0 0.745098 0 0 0 1 0"/>
<feBlend mode="normal" in2="BackgroundImageFix" result="effect1_dropShadow_7_52"/>
<feBlend mode="normal" in="SourceGraphic" in2="effect1_dropShadow_7_52" result="shape"/>
</filter>
<filter id="filter1_d_7_52" x="250.466" y="192" width="244" height="257" filterUnits="userSpaceOnUse" color-interpolation-filters="sRGB">
<feFlood flood-opacity="0" result="BackgroundImageFix"/>
<feColorMatrix in="SourceAlpha" type="matrix" values="0 0 0 0 0 0 0 0 0 0 0 0 0 0 0 0 0 0 127 0" result="hardAlpha"/>
<feOffset dy="14"/>
<feGaussianBlur stdDeviation="1.5"/>
<feComposite in2="hardAlpha" operator="out"/>
<feColorMatrix type="matrix" values="0 0 0 0 0.768627 0 0 0 0 0.823529 0 0 0 0 0.745098 0 0 0 1 0"/>
<feBlend mode="normal" in2="BackgroundImageFix" result="effect1_dropShadow_7_52"/>
<feBlend mode="normal" in="SourceGraphic" in2="effect1_dropShadow_7_52" result="shape"/>
</filter>
<filter id="filter2_d_7_52" x="297.466" y="241" width="147" height="156" filterUnits="userSpaceOnUse" color-interpolation-filters="sRGB">
<feFlood flood-opacity="0" result="BackgroundImageFix"/>
<feColorMatrix in="SourceAlpha" type="matrix" values="0 0 0 0 0 0 0 0 0 0 0 0 0 0 0 0 0 0 127 0" result="hardAlpha"/>
<feOffset dy="11"/>
<feGaussianBlur stdDeviation="1"/>
<feComposite in2="hardAlpha" operator="out"/>
<feColorMatrix type="matrix" values="0 0 0 0 0.768627 0 0 0 0 0.823529 0 0 0 0 0.745098 0 0 0 1 0"/>
<feBlend mode="normal" in2="BackgroundImageFix" result="effect1_dropShadow_7_52"/>
<feBlend mode="normal" in="SourceGraphic" in2="effect1_dropShadow_7_52" result="shape"/>
</filter>
<linearGradient id="paint0_linear_7_52" x1="335" y1="70.5" x2="410.5" y2="575" gradientUnits="userSpaceOnUse">
<stop offset="0.0159675" stop-color="#FAF7E3"/>
<stop offset="0.113209" stop-color="#DFE1C9"/>
<stop offset="0.317519" stop-color="#96D2BE"/>
<stop offset="1" stop-color="#87D0C0"/>
</linearGradient>
<linearGradient id="paint1_linear_7_52" x1="247" y1="135.5" x2="674" y2="432" gradientUnits="userSpaceOnUse">
<stop stop-color="#FDF3DD"/>
<stop offset="1" stop-color="#89D0BF"/>
</linearGradient>
<linearGradient id="paint2_linear_7_52" x1="295" y1="80.5" x2="658.5" y2="522.5" gradientUnits="userSpaceOnUse">
<stop offset="0.184014" stop-color="#479994"/>
<stop offset="0.585668" stop-color="#2A777B"/>
<stop offset="0.748444" stop-color="#48B5C7"/>
<stop offset="1" stop-color="#2690A3"/>
</linearGradient>
<linearGradient id="paint3_linear_7_52" x1="688" y1="509" x2="342" y2="644.5" gradientUnits="userSpaceOnUse">
<stop stop-color="#54C8D3"/>
<stop offset="0.594884" stop-color="#4EBDCC"/>
<stop offset="1" stop-color="#42A8BC"/>
</linearGradient>
<linearGradient id="paint4_linear_7_52" x1="680.5" y1="506" x2="352" y2="642" gradientUnits="userSpaceOnUse">
<stop stop-color="#53C7D2"/>
<stop offset="0.5" stop-color="#4FBFCD"/>
<stop offset="1" stop-color="#43AABE"/>
</linearGradient>
<linearGradient id="paint5_linear_7_52" x1="331.481" y1="45.0539" x2="334.037" y2="672.491" gradientUnits="userSpaceOnUse">
<stop stop-color="#0A4650"/>
<stop offset="0.0662001" stop-color="#092F3D"/>
<stop offset="0.97696" stop-color="#092F3D"/>
<stop offset="1" stop-color="#093E43"/>
</linearGradient>
<linearGradient id="paint6_linear_7_52" x1="566.5" y1="588.5" x2="580" y2="607.5" gradientUnits="userSpaceOnUse">
<stop stop-color="#3BABB7"/>
<stop offset="0.46" stop-color="#55C7D5"/>
</linearGradient>
<radialGradient id="paint7_angular_7_52" cx="0" cy="0" r="1" gradientUnits="userSpaceOnUse" gradientTransform="translate(371.5 376.5) rotate(-139.764) scale(332.073 343.473)">
<stop stop-color="#338684"/>
<stop offset="0.0377943" stop-color="#328B88"/>
<stop offset="0.1288" stop-color="#327F7A"/>
<stop offset="0.517189" stop-color="#2F92A5"/>
<stop offset="0.569231" stop-color="#2C8E9C"/>
<stop offset="0.611613" stop-color="#155457"/>
<stop offset="0.696585" stop-color="#194E55"/>
<stop offset="0.8013" stop-color="#266368"/>
<stop offset="0.895495" stop-color="#2E7979"/>
</radialGradient>
<radialGradient id="paint8_angular_7_52" cx="0" cy="0" r="1" gradientUnits="userSpaceOnUse" gradientTransform="translate(390.5 363.5) rotate(48.9514) scale(333.487 335.224)">
<stop offset="0.00502741" stop-color="#2F92A4"/>
<stop offset="0.0619294" stop-color="#298898"/>
<stop offset="0.112506" stop-color="#125155"/>
<stop offset="0.203131" stop-color="#185054"/>
<stop offset="0.321858" stop-color="#2B7172"/>
<stop offset="0.452928" stop-color="#398482"/>
<stop offset="0.598229" stop-color="#327C77"/>
<stop offset="0.59935" stop-color="#042C33"/>
<stop offset="0.607037" stop-color="#042C33"/>
</radialGradient>
<radialGradient id="paint9_radial_7_52" cx="0" cy="0" r="1" gradientUnits="userSpaceOnUse" gradientTransform="translate(371.466 311.5) rotate(90) scale(21.5 21.8116)">
<stop stop-color="#FD945F"/>
<stop offset="0.76" stop-color="#FE804B"/>
</radialGradient>
</defs>
</svg>
